# Blender 4.3.2
# www.blender.org
o Cylinder
v 0.000000 -1.985881 -0.636031
v -0.000000 0.150373 -0.314718
v 0.124083 -1.985881 -0.623810
v 0.061398 0.150373 -0.308670
v 0.243398 -1.985881 -0.587616
v 0.120437 0.150373 -0.290761
v 0.353360 -1.985881 -0.528840
v 0.174848 0.150373 -0.261678
v 0.449742 -1.985881 -0.449742
v 0.222539 0.150373 -0.222539
v 0.528840 -1.985881 -0.353360
v 0.261678 0.150373 -0.174848
v 0.587616 -1.985881 -0.243398
v 0.290761 0.150373 -0.120437
v 0.623810 -1.985881 -0.124083
v 0.308670 0.150373 -0.061398
v 0.636031 -1.985881 0.000000
v 0.314718 0.150373 0.000000
v 0.623810 -1.985881 0.124083
v 0.308670 0.150373 0.061398
v 0.587616 -1.985881 0.243398
v 0.290761 0.150373 0.120437
v 0.528840 -1.985881 0.353360
v 0.261678 0.150373 0.174848
v 0.449742 -1.985881 0.449742
v 0.222539 0.150373 0.222539
v 0.353360 -1.985881 0.528840
v 0.174848 0.150373 0.261678
v 0.243398 -1.985881 0.587616
v 0.120437 0.150373 0.290761
v 0.124083 -1.985881 0.623810
v 0.061398 0.150373 0.308670
v 0.000000 -1.985881 0.636031
v -0.000000 0.150373 0.314718
v -0.124083 -1.985881 0.623810
v -0.061398 0.150373 0.308670
v -0.243398 -1.985881 0.587616
v -0.120437 0.150373 0.290761
v -0.353360 -1.985881 0.528840
v -0.174848 0.150373 0.261678
v -0.449742 -1.985881 0.449742
v -0.222539 0.150373 0.222539
v -0.528840 -1.985881 0.353360
v -0.261678 0.150373 0.174848
v -0.587616 -1.985881 0.243398
v -0.290761 0.150373 0.120437
v -0.623810 -1.985881 0.124083
v -0.308670 0.150373 0.061398
v -0.636031 -1.985881 0.000000
v -0.314718 0.150373 0.000000
v -0.623810 -1.985881 -0.124083
v -0.308670 0.150373 -0.061398
v -0.587616 -1.985881 -0.243398
v -0.290761 0.150373 -0.120437
v -0.528840 -1.985881 -0.353360
v -0.261678 0.150373 -0.174848
v -0.449742 -1.985881 -0.449742
v -0.222539 0.150373 -0.222539
v -0.353360 -1.985881 -0.528840
v -0.174848 0.150373 -0.261678
v -0.243398 -1.985881 -0.587616
v -0.120437 0.150373 -0.290761
v -0.124083 -1.985881 -0.623810
v -0.061398 0.150373 -0.308670
v 0.061398 0.924030 -0.308670
v -0.000000 0.924030 -0.314718
v 0.120437 0.924030 -0.290761
v 0.174848 0.924030 -0.261678
v 0.222539 0.924030 -0.222539
v 0.261678 0.924030 -0.174848
v 0.290761 0.924030 -0.120437
v 0.308670 0.924030 -0.061398
v 0.314718 0.924030 0.000000
v 0.308670 0.924030 0.061398
v 0.290761 0.924030 0.120437
v 0.261678 0.924030 0.174848
v 0.222539 0.924030 0.222539
v 0.174848 0.924030 0.261678
v 0.120437 0.924030 0.290761
v 0.061398 0.924030 0.308670
v -0.000000 0.924030 0.314718
v -0.061398 0.924030 0.308670
v -0.120437 0.924030 0.290761
v -0.174848 0.924030 0.261678
v -0.222539 0.924030 0.222539
v -0.261678 0.924030 0.174848
v -0.290761 0.924030 0.120437
v -0.308670 0.924030 0.061398
v -0.314718 0.924030 0.000000
v -0.308670 0.924030 -0.061398
v -0.290761 0.924030 -0.120437
v -0.261678 0.924030 -0.174848
v -0.222539 0.924030 -0.222539
v -0.174848 0.924030 -0.261678
v -0.120437 0.924030 -0.290761
v -0.061398 0.924030 -0.308670
v 0.116249 1.064418 -0.584422
v -0.000000 1.064418 -0.595872
v 0.228030 1.064418 -0.550513
v 0.331049 1.064418 -0.495449
v 0.421345 1.064418 -0.421345
v 0.495449 1.064418 -0.331048
v 0.550514 1.064418 -0.228030
v 0.584422 1.064418 -0.116249
v 0.595872 1.064418 0.000000
v 0.584422 1.064418 0.116249
v 0.550514 1.064418 0.228030
v 0.495449 1.064418 0.331048
v 0.421345 1.064418 0.421345
v 0.331049 1.064418 0.495449
v 0.228030 1.064418 0.550513
v 0.116249 1.064418 0.584422
v -0.000000 1.064418 0.595872
v -0.116249 1.064418 0.584422
v -0.228030 1.064418 0.550513
v -0.331048 1.064418 0.495449
v -0.421345 1.064418 0.421345
v -0.495449 1.064418 0.331048
v -0.550513 1.064418 0.228030
v -0.584422 1.064418 0.116249
v -0.595871 1.064418 0.000000
v -0.584422 1.064418 -0.116249
v -0.550513 1.064418 -0.228030
v -0.495449 1.064418 -0.331048
v -0.421345 1.064418 -0.421345
v -0.331048 1.064418 -0.495449
v -0.228030 1.064418 -0.550513
v -0.116249 1.064418 -0.584422
v 0.116249 2.572196 -0.584422
v -0.000000 2.572196 -0.595872
v 0.228030 2.572196 -0.550513
v 0.331048 2.572196 -0.495449
v 0.421345 2.572196 -0.421345
v 0.495449 2.572196 -0.331048
v 0.550513 2.572196 -0.228030
v 0.584422 2.572196 -0.116249
v 0.595871 2.572196 0.000000
v 0.584422 2.572196 0.116249
v 0.550513 2.572196 0.228030
v 0.495449 2.572196 0.331048
v 0.421345 2.572196 0.421345
v 0.331048 2.572196 0.495449
v 0.228030 2.572196 0.550513
v 0.116249 2.572196 0.584422
v -0.000000 2.572196 0.595872
v -0.116249 2.572196 0.584422
v -0.228030 2.572196 0.550513
v -0.331048 2.572196 0.495449
v -0.421345 2.572196 0.421345
v -0.495449 2.572196 0.331048
v -0.550513 2.572196 0.228030
v -0.584422 2.572196 0.116249
v -0.595872 2.572196 0.000000
v -0.584422 2.572196 -0.116249
v -0.550513 2.572196 -0.228030
v -0.495449 2.572196 -0.331048
v -0.421345 2.572196 -0.421345
v -0.331048 2.572196 -0.495449
v -0.228030 2.572196 -0.550513
v -0.116249 2.572196 -0.584422
vn -0.0000 -0.6299 -0.7767
vn -0.0000 0.0749 -0.9972
vn 0.1515 -0.6299 -0.7617
vn 0.1945 0.0749 -0.9780
vn 0.2972 -0.6299 -0.7175
vn 0.3816 0.0749 -0.9213
vn 0.4315 -0.6299 -0.6458
vn 0.5540 0.0749 -0.8291
vn 0.5492 -0.6299 -0.5492
vn 0.7051 0.0749 -0.7051
vn 0.6458 -0.6299 -0.4315
vn 0.8291 0.0749 -0.5540
vn 0.7175 -0.6299 -0.2972
vn 0.9213 0.0749 -0.3816
vn 0.7617 -0.6299 -0.1515
vn 0.9780 0.0749 -0.1945
vn 0.7767 -0.6299 -0.0000
vn 0.9972 0.0749 -0.0000
vn 0.7617 -0.6299 0.1515
vn 0.9780 0.0749 0.1945
vn 0.7175 -0.6299 0.2972
vn 0.9213 0.0749 0.3816
vn 0.6458 -0.6299 0.4315
vn 0.8291 0.0749 0.5540
vn 0.5492 -0.6299 0.5492
vn 0.7051 0.0749 0.7051
vn 0.4315 -0.6299 0.6458
vn 0.5540 0.0749 0.8291
vn 0.2972 -0.6299 0.7175
vn 0.3816 0.0749 0.9213
vn 0.1515 -0.6299 0.7617
vn 0.1945 0.0749 0.9780
vn -0.0000 -0.6299 0.7767
vn -0.0000 0.0749 0.9972
vn -0.1515 -0.6299 0.7617
vn -0.1945 0.0749 0.9780
vn -0.2972 -0.6299 0.7175
vn -0.3816 0.0749 0.9213
vn -0.4315 -0.6299 0.6458
vn -0.5540 0.0749 0.8291
vn -0.5492 -0.6299 0.5492
vn -0.7051 0.0749 0.7051
vn -0.6458 -0.6299 0.4315
vn -0.8291 0.0749 0.5540
vn -0.7175 -0.6299 0.2972
vn -0.9213 0.0749 0.3816
vn -0.7617 -0.6299 0.1515
vn -0.9780 0.0749 0.1945
vn -0.7767 -0.6299 -0.0000
vn -0.9972 0.0749 -0.0000
vn -0.7617 -0.6299 -0.1515
vn -0.9780 0.0749 -0.1945
vn -0.7175 -0.6299 -0.2972
vn -0.9213 0.0749 -0.3816
vn -0.6458 -0.6299 -0.4315
vn -0.8291 0.0749 -0.5540
vn -0.5492 -0.6299 -0.5492
vn -0.7051 0.0749 -0.7051
vn -0.4315 -0.6299 -0.6458
vn -0.5540 0.0749 -0.8291
vn -0.2972 -0.6299 -0.7175
vn -0.3816 0.0749 -0.9213
vn -0.1515 -0.6299 -0.7617
vn -0.1945 0.0749 -0.9780
vn 0.1641 -0.5412 -0.8247
vn -0.0000 -0.5412 -0.8409
vn 0.3218 -0.5412 -0.7769
vn 0.4672 -0.5412 -0.6992
vn 0.5946 -0.5412 -0.5946
vn 0.6992 -0.5412 -0.4672
vn 0.7769 -0.5412 -0.3218
vn 0.8247 -0.5412 -0.1641
vn 0.8409 -0.5412 -0.0000
vn 0.8247 -0.5412 0.1641
vn 0.7769 -0.5412 0.3218
vn 0.6992 -0.5412 0.4672
vn 0.5946 -0.5412 0.5946
vn 0.4672 -0.5412 0.6992
vn 0.3218 -0.5412 0.7769
vn 0.1641 -0.5412 0.8247
vn -0.0000 -0.5412 0.8409
vn -0.1641 -0.5412 0.8247
vn -0.3218 -0.5412 0.7769
vn -0.4672 -0.5412 0.6992
vn -0.5946 -0.5412 0.5946
vn -0.6992 -0.5412 0.4672
vn -0.7769 -0.5412 0.3218
vn -0.8247 -0.5412 0.1641
vn -0.8409 -0.5412 -0.0000
vn -0.8247 -0.5412 -0.1641
vn -0.7769 -0.5412 -0.3218
vn -0.6992 -0.5412 -0.4672
vn -0.5946 -0.5412 -0.5946
vn -0.4672 -0.5412 -0.6992
vn -0.3218 -0.5412 -0.7769
vn -0.1641 -0.5412 -0.8247
vn 0.1676 -0.5118 -0.8426
vn -0.0000 -0.5118 -0.8591
vn 0.3288 -0.5118 -0.7937
vn 0.4773 -0.5118 -0.7143
vn 0.6075 -0.5118 -0.6075
vn 0.7143 -0.5118 -0.4773
vn 0.7937 -0.5118 -0.3288
vn 0.8426 -0.5118 -0.1676
vn 0.8591 -0.5118 -0.0000
vn 0.8426 -0.5118 0.1676
vn 0.7937 -0.5118 0.3288
vn 0.7143 -0.5118 0.4773
vn 0.6075 -0.5118 0.6075
vn 0.4773 -0.5118 0.7143
vn 0.3288 -0.5118 0.7937
vn 0.1676 -0.5118 0.8426
vn -0.0000 -0.5118 0.8591
vn -0.1676 -0.5118 0.8426
vn -0.3288 -0.5118 0.7937
vn -0.4773 -0.5118 0.7143
vn -0.6075 -0.5118 0.6075
vn -0.7143 -0.5118 0.4773
vn -0.7937 -0.5118 0.3288
vn -0.8426 -0.5118 0.1676
vn -0.8591 -0.5118 -0.0000
vn -0.8426 -0.5118 -0.1676
vn -0.7937 -0.5118 -0.3288
vn -0.7143 -0.5118 -0.4773
vn -0.6075 -0.5118 -0.6075
vn -0.4773 -0.5118 -0.7143
vn -0.3288 -0.5118 -0.7937
vn -0.1676 -0.5118 -0.8426
vn 0.1420 0.6857 -0.7139
vn -0.0000 0.6857 -0.7279
vn 0.2785 0.6857 -0.6725
vn 0.4044 0.6857 -0.6052
vn 0.5147 0.6857 -0.5147
vn 0.6052 0.6857 -0.4044
vn 0.6725 0.6857 -0.2785
vn 0.7139 0.6857 -0.1420
vn 0.7279 0.6857 -0.0000
vn 0.7139 0.6857 0.1420
vn 0.6725 0.6857 0.2785
vn 0.6052 0.6857 0.4044
vn 0.5147 0.6857 0.5147
vn 0.4044 0.6857 0.6052
vn 0.2785 0.6857 0.6725
vn 0.1420 0.6857 0.7139
vn -0.0000 0.6857 0.7279
vn -0.1420 0.6857 0.7139
vn -0.2785 0.6857 0.6725
vn -0.4044 0.6857 0.6052
vn -0.5147 0.6857 0.5147
vn -0.6052 0.6857 0.4044
vn -0.6725 0.6857 0.2785
vn -0.7139 0.6857 0.1420
vn -0.7279 0.6857 -0.0000
vn -0.7139 0.6857 -0.1420
vn -0.6725 0.6857 -0.2785
vn -0.6052 0.6857 -0.4044
vn -0.5147 0.6857 -0.5147
vn -0.4044 0.6857 -0.6052
vn -0.2785 0.6857 -0.6725
vn -0.1420 0.6857 -0.7139
vt 1.000000 0.500000
vt 1.000000 1.000000
vt 0.968750 1.000000
vt 0.968750 0.500000
vt 0.937500 1.000000
vt 0.937500 0.500000
vt 0.906250 1.000000
vt 0.906250 0.500000
vt 0.875000 1.000000
vt 0.875000 0.500000
vt 0.843750 1.000000
vt 0.843750 0.500000
vt 0.812500 1.000000
vt 0.812500 0.500000
vt 0.781250 1.000000
vt 0.781250 0.500000
vt 0.750000 1.000000
vt 0.750000 0.500000
vt 0.718750 1.000000
vt 0.718750 0.500000
vt 0.687500 1.000000
vt 0.687500 0.500000
vt 0.656250 1.000000
vt 0.656250 0.500000
vt 0.625000 1.000000
vt 0.625000 0.500000
vt 0.593750 1.000000
vt 0.593750 0.500000
vt 0.562500 1.000000
vt 0.562500 0.500000
vt 0.531250 1.000000
vt 0.531250 0.500000
vt 0.500000 1.000000
vt 0.500000 0.500000
vt 0.468750 1.000000
vt 0.468750 0.500000
vt 0.437500 1.000000
vt 0.437500 0.500000
vt 0.406250 1.000000
vt 0.406250 0.500000
vt 0.375000 1.000000
vt 0.375000 0.500000
vt 0.343750 1.000000
vt 0.343750 0.500000
vt 0.312500 1.000000
vt 0.312500 0.500000
vt 0.281250 1.000000
vt 0.281250 0.500000
vt 0.250000 1.000000
vt 0.250000 0.500000
vt 0.218750 1.000000
vt 0.218750 0.500000
vt 0.187500 1.000000
vt 0.187500 0.500000
vt 0.156250 1.000000
vt 0.156250 0.500000
vt 0.125000 1.000000
vt 0.125000 0.500000
vt 0.093750 1.000000
vt 0.093750 0.500000
vt 0.062500 1.000000
vt 0.062500 0.500000
vt 0.031250 1.000000
vt 0.031250 0.500000
vt 0.000000 1.000000
vt 0.000000 0.500000
vt 0.750000 0.490000
vt 0.796822 0.485388
vt 0.841844 0.471731
vt 0.883337 0.449553
vt 0.919706 0.419706
vt 0.949553 0.383337
vt 0.971731 0.341844
vt 0.985388 0.296822
vt 0.990000 0.250000
vt 0.985388 0.203178
vt 0.971731 0.158156
vt 0.949553 0.116663
vt 0.919706 0.080294
vt 0.883337 0.050447
vt 0.841844 0.028269
vt 0.796822 0.014612
vt 0.750000 0.010000
vt 0.703178 0.014612
vt 0.658156 0.028269
vt 0.616663 0.050447
vt 0.580294 0.080294
vt 0.550447 0.116663
vt 0.528269 0.158156
vt 0.514612 0.203178
vt 0.510000 0.250000
vt 0.514612 0.296822
vt 0.528269 0.341844
vt 0.550447 0.383337
vt 0.580294 0.419706
vt 0.616663 0.449553
vt 0.658156 0.471731
vt 0.703178 0.485388
vt 0.312500 1.000000
vt 0.187500 1.000000
vt 0.718750 1.000000
vt 0.687500 1.000000
vt 0.656250 1.000000
vt 0.562500 1.000000
vt 0.999972 1.000000
vt 0.125000 1.000000
vt 0.093750 1.000000
vt 0.000028 1.000000
vt 0.406250 1.000000
vt 0.812500 1.000000
vt 0.375000 1.000000
vt 0.292658 0.464456
vt 0.250000 0.468658
vt 0.207342 0.464456
vt 0.166323 0.452013
vt 0.128520 0.431807
vt 0.095386 0.404614
vt 0.068193 0.371480
vt 0.047987 0.333677
vt 0.035544 0.292658
vt 0.031342 0.250000
vt 0.035544 0.207342
vt 0.047987 0.166323
vt 0.068193 0.128520
vt 0.095386 0.095386
vt 0.128520 0.068193
vt 0.166323 0.047987
vt 0.207342 0.035544
vt 0.250000 0.031342
vt 0.292658 0.035544
vt 0.333677 0.047987
vt 0.371480 0.068193
vt 0.404614 0.095386
vt 0.431807 0.128520
vt 0.452013 0.166323
vt 0.464456 0.207342
vt 0.468658 0.250000
vt 0.464456 0.292658
vt 0.452013 0.333677
vt 0.431807 0.371480
vt 0.404614 0.404614
vt 0.371480 0.431807
vt 0.333677 0.452013
s 1
f 1/1/1 2/2/2 4/3/4 3/4/3
f 3/4/3 4/3/4 6/5/6 5/6/5
f 5/6/5 6/5/6 8/7/8 7/8/7
f 7/8/7 8/7/8 10/9/10 9/10/9
f 9/10/9 10/9/10 12/11/12 11/12/11
f 11/12/11 12/11/12 14/13/14 13/14/13
f 13/14/13 14/13/14 16/15/16 15/16/15
f 15/16/15 16/15/16 18/17/18 17/18/17
f 17/18/17 18/17/18 20/19/20 19/20/19
f 19/20/19 20/19/20 22/21/22 21/22/21
f 21/22/21 22/21/22 24/23/24 23/24/23
f 23/24/23 24/23/24 26/25/26 25/26/25
f 25/26/25 26/25/26 28/27/28 27/28/27
f 27/28/27 28/27/28 30/29/30 29/30/29
f 29/30/29 30/29/30 32/31/32 31/32/31
f 31/32/31 32/31/32 34/33/34 33/34/33
f 33/34/33 34/33/34 36/35/36 35/36/35
f 35/36/35 36/35/36 38/37/38 37/38/37
f 37/38/37 38/37/38 40/39/40 39/40/39
f 39/40/39 40/39/40 42/41/42 41/42/41
f 41/42/41 42/41/42 44/43/44 43/44/43
f 43/44/43 44/43/44 46/45/46 45/46/45
f 45/46/45 46/45/46 48/47/48 47/48/47
f 47/48/47 48/47/48 50/49/50 49/50/49
f 49/50/49 50/49/50 52/51/52 51/52/51
f 51/52/51 52/51/52 54/53/54 53/54/53
f 53/54/53 54/53/54 56/55/56 55/56/55
f 55/56/55 56/55/56 58/57/58 57/58/57
f 57/58/57 58/57/58 60/59/60 59/60/59
f 59/60/59 60/59/60 62/61/62 61/62/61
f 12/11/12 10/9/10 69/9/69 70/11/70
f 61/62/61 62/61/62 64/63/64 63/64/63
f 63/64/63 64/63/64 2/65/2 1/66/1
f 1/67/1 3/68/3 5/69/5 7/70/7 9/71/9 11/72/11 13/73/13 15/74/15 17/75/17 19/76/19 21/77/21 23/78/23 25/79/25 27/80/27 29/81/29 31/82/31 33/83/33 35/84/35 37/85/37 39/86/39 41/87/41 43/88/43 45/89/45 47/90/47 49/91/49 51/92/51 53/93/53 55/94/55 57/95/57 59/96/59 61/97/61 63/98/63
f 88/47/88 87/45/87 119/99/119 120/47/120
f 30/29/30 28/27/28 78/27/78 79/29/79
f 48/47/48 46/45/46 87/45/87 88/47/88
f 4/3/4 2/2/2 66/2/66 65/3/65
f 2/65/2 64/63/64 96/63/96 66/65/66
f 22/21/22 20/19/20 74/19/74 75/21/75
f 40/39/40 38/37/38 83/37/83 84/39/84
f 58/57/58 56/55/56 92/55/92 93/57/93
f 14/13/14 12/11/12 70/11/70 71/13/71
f 32/31/32 30/29/30 79/29/79 80/31/80
f 50/49/50 48/47/48 88/47/88 89/49/89
f 6/5/6 4/3/4 65/3/65 67/5/67
f 24/23/24 22/21/22 75/21/75 76/23/76
f 42/41/42 40/39/40 84/39/84 85/41/85
f 60/59/60 58/57/58 93/57/93 94/59/94
f 16/15/16 14/13/14 71/13/71 72/15/72
f 34/33/34 32/31/32 80/31/80 81/33/81
f 52/51/52 50/49/50 89/49/89 90/51/90
f 8/7/8 6/5/6 67/5/67 68/7/68
f 26/25/26 24/23/24 76/23/76 77/25/77
f 44/43/44 42/41/42 85/41/85 86/43/86
f 62/61/62 60/59/60 94/59/94 95/61/95
f 18/17/18 16/15/16 72/15/72 73/17/73
f 36/35/36 34/33/34 81/33/81 82/35/82
f 54/53/54 52/51/52 90/51/90 91/53/91
f 10/9/10 8/7/8 68/7/68 69/9/69
f 28/27/28 26/25/26 77/25/77 78/27/78
f 46/45/46 44/43/44 86/43/86 87/45/87
f 64/63/64 62/61/62 95/61/95 96/63/96
f 20/19/20 18/17/18 73/17/73 74/19/74
f 38/37/38 36/35/36 82/35/82 83/37/83
f 56/55/56 54/53/54 91/53/91 92/55/92
f 123/100/123 122/51/122 154/51/154 155/100/155
f 75/21/75 74/19/74 106/101/106 107/102/107
f 89/49/89 88/47/88 120/47/120 121/49/121
f 76/23/76 75/21/75 107/102/107 108/103/108
f 90/51/90 89/49/89 121/49/121 122/51/122
f 77/25/77 76/23/76 108/103/108 109/25/109
f 91/53/91 90/51/90 122/51/122 123/100/123
f 78/27/78 77/25/77 109/25/109 110/27/110
f 92/55/92 91/53/91 123/100/123 124/55/124
f 79/29/79 78/27/78 110/27/110 111/104/111
f 65/3/65 66/2/66 98/105/98 97/3/97
f 93/57/93 92/55/92 124/55/124 125/106/125
f 80/31/80 79/29/79 111/104/111 112/31/112
f 67/5/67 65/3/65 97/3/97 99/5/99
f 94/59/94 93/57/93 125/106/125 126/107/126
f 81/33/81 80/31/80 112/31/112 113/33/113
f 68/7/68 67/5/67 99/5/99 100/7/100
f 95/61/95 94/59/94 126/107/126 127/61/127
f 82/35/82 81/33/81 113/33/113 114/35/114
f 69/9/69 68/7/68 100/7/100 101/9/101
f 96/63/96 95/61/95 127/61/127 128/63/128
f 83/37/83 82/35/82 114/35/114 115/37/115
f 70/11/70 69/9/69 101/9/101 102/11/102
f 66/65/66 96/63/96 128/63/128 98/108/98
f 84/39/84 83/37/83 115/37/115 116/109/116
f 71/13/71 70/11/70 102/11/102 103/110/103
f 85/41/85 84/39/84 116/109/116 117/111/117
f 72/15/72 71/13/71 103/110/103 104/15/104
f 86/43/86 85/41/85 117/111/117 118/43/118
f 73/17/73 72/15/72 104/15/104 105/17/105
f 87/45/87 86/43/86 118/43/118 119/99/119
f 74/19/74 73/17/73 105/17/105 106/101/106
f 129/112/129 130/113/130 160/114/160 159/115/159 158/116/158 157/117/157 156/118/156 155/119/155 154/120/154 153/121/153 152/122/152 151/123/151 150/124/150 149/125/149 148/126/148 147/127/147 146/128/146 145/129/145 144/130/144 143/131/143 142/132/142 141/133/141 140/134/140 139/135/139 138/136/138 137/137/137 136/138/136 135/139/135 134/140/134 133/141/133 132/142/132 131/143/131
f 110/27/110 109/25/109 141/25/141 142/27/142
f 124/55/124 123/100/123 155/100/155 156/55/156
f 111/104/111 110/27/110 142/27/142 143/104/143
f 97/3/97 98/105/98 130/105/130 129/3/129
f 125/106/125 124/55/124 156/55/156 157/106/157
f 112/31/112 111/104/111 143/104/143 144/31/144
f 99/5/99 97/3/97 129/3/129 131/5/131
f 126/107/126 125/106/125 157/106/157 158/107/158
f 113/33/113 112/31/112 144/31/144 145/33/145
f 100/7/100 99/5/99 131/5/131 132/7/132
f 127/61/127 126/107/126 158/107/158 159/61/159
f 114/35/114 113/33/113 145/33/145 146/35/146
f 101/9/101 100/7/100 132/7/132 133/9/133
f 128/63/128 127/61/127 159/61/159 160/63/160
f 115/37/115 114/35/114 146/35/146 147/37/147
f 102/11/102 101/9/101 133/9/133 134/11/134
f 98/108/98 128/63/128 160/63/160 130/108/130
f 116/109/116 115/37/115 147/37/147 148/109/148
f 103/110/103 102/11/102 134/11/134 135/110/135
f 117/111/117 116/109/116 148/109/148 149/111/149
f 104/15/104 103/110/103 135/110/135 136/15/136
f 118/43/118 117/111/117 149/111/149 150/43/150
f 105/17/105 104/15/104 136/15/136 137/17/137
f 119/99/119 118/43/118 150/43/150 151/99/151
f 106/101/106 105/17/105 137/17/137 138/101/138
f 120/47/120 119/99/119 151/99/151 152/47/152
f 107/102/107 106/101/106 138/101/138 139/102/139
f 121/49/121 120/47/120 152/47/152 153/49/153
f 108/103/108 107/102/107 139/102/139 140/103/140
f 122/51/122 121/49/121 153/49/153 154/51/154
f 109/25/109 108/103/108 140/103/140 141/25/141
